<mxfile host="app.diagrams.net" modified="2025-08-14T11:30:00.000Z" agent="5.0" version="24.7.8" etag="drawio-diagram" type="device">
  <diagram name="config-flow" id="config-flow">
    <mxGraphModel dx="1422" dy="754" grid="1" gridSize="10" guides="1" tooltips="1" connect="1" arrows="1" fold="1" page="1" pageScale="1" pageWidth="1654" pageHeight="2336" math="0" shadow="0">
      <root>
        <mxCell id="0" />
        <mxCell id="1" parent="0" />
        
        <!-- Title -->
        <mxCell id="title" value="Smart Review 設定管理システム フロー図&#xa;smart-review-config.js" style="text;html=1;align=center;verticalAlign=middle;whiteSpace=wrap;fontSize=16;fontStyle=1;fontColor=#000000" vertex="1" parent="1">
          <mxGeometry x="200" y="50" width="400" height="40" as="geometry" />
        </mxCell>
        
        <!-- Start -->
        <mxCell id="start" value="🚀 開始&#xa;設定管理システム" style="ellipse;whiteSpace=wrap;html=1;fillColor=#e1d5e7;strokeColor=#9673a6;fontSize=14;fontStyle=1;fontColor=#000000" vertex="1" parent="1">
          <mxGeometry x="650" y="40" width="200" height="80" as="geometry" />
        </mxCell>
        
        <!-- Main Process -->
        <mxCell id="main1" value="📦 SmartReviewConfig&#xa;クラス初期化" style="rounded=1;whiteSpace=wrap;html=1;fillColor=#d5e8d4;strokeColor=#82b366;fontSize=12;fontStyle=1;fontColor=#000000" vertex="1" parent="1">
          <mxGeometry x="650" y="160" width="200" height="60" as="geometry" />
        </mxCell>
        
        <mxCell id="main2" value="🗄️ configCache = null&#xa;キャッシュ初期化" style="rounded=1;whiteSpace=wrap;html=1;fillColor=#e1d5e7;strokeColor=#9673a6;fontSize=11;fontColor=#000000" vertex="1" parent="1">
          <mxGeometry x="650" y="260" width="200" height="60" as="geometry" />
        </mxCell>
        
        <mxCell id="main3" value="📁 設定ファイルパス定義&#xa;./smart-review.json&#xa;~/.claude/smart-review.json&#xa;~/.config/smart-review.json" style="rounded=1;whiteSpace=wrap;html=1;fillColor=#fff2cc;strokeColor=#d6b656;fontSize=10;fontColor=#000000" vertex="1" parent="1">
          <mxGeometry x="650" y="360" width="200" height="80" as="geometry" />
        </mxCell>
        
        <!-- Branch Point -->
        <mxCell id="branch1" value="メソッド呼出" style="rhombus;whiteSpace=wrap;html=1;fillColor=#fff2cc;strokeColor=#d6b656;fontSize=12;fontColor=#000000" vertex="1" parent="1">
          <mxGeometry x="650" y="480" width="200" height="80" as="geometry" />
        </mxCell>
        
        <!-- getAgents Process -->
        <mxCell id="agents1" value="🤖 getAgents()&#xa;エージェント設定取得" style="rounded=1;whiteSpace=wrap;html=1;fillColor=#d5e8d4;strokeColor=#82b366;fontSize=12;fontStyle=1;fontColor=#000000" vertex="1" parent="1">
          <mxGeometry x="400" y="600" width="180" height="60" as="geometry" />
        </mxCell>
        
        <mxCell id="agents2" value="📚 loadConfig()&#xa;設定ファイル読込" style="rounded=1;whiteSpace=wrap;html=1;fillColor=#ffe6cc;strokeColor=#d79b00;fontSize=11;fontColor=#000000" vertex="1" parent="1">
          <mxGeometry x="400" y="700" width="180" height="50" as="geometry" />
        </mxCell>
        
        <mxCell id="agents3" value="🔍 キャッシュ確認" style="rhombus;whiteSpace=wrap;html=1;fillColor=#fff2cc;strokeColor=#d6b656;fontSize=11;fontColor=#000000" vertex="1" parent="1">
          <mxGeometry x="420" y="790" width="140" height="60" as="geometry" />
        </mxCell>
        
        <mxCell id="agents4" value="✅ キャッシュ返却" style="rounded=1;whiteSpace=wrap;html=1;fillColor=#e1d5e7;strokeColor=#9673a6;fontSize=10;fontColor=#000000" vertex="1" parent="1">
          <mxGeometry x="250" y="800" width="120" height="40" as="geometry" />
        </mxCell>
        
        <mxCell id="agents5" value="📂 設定ファイル探索&#xa;順番にチェック" style="rounded=1;whiteSpace=wrap;html=1;fillColor=#f8cecc;strokeColor=#b85450;fontSize=10;fontColor=#000000" vertex="1" parent="1">
          <mxGeometry x="400" y="890" width="180" height="50" as="geometry" />
        </mxCell>
        
        <mxCell id="agents6" value="📖 ファイル読込&#xa;fs.readFile()" style="rounded=1;whiteSpace=wrap;html=1;fillColor=#ffe6cc;strokeColor=#d79b00;fontSize=10;fontColor=#000000" vertex="1" parent="1">
          <mxGeometry x="400" y="980" width="180" height="50" as="geometry" />
        </mxCell>
        
        <mxCell id="agents7" value="🔧 JSON解析&#xa;JSON.parse()" style="rounded=1;whiteSpace=wrap;html=1;fillColor=#ffe6cc;strokeColor=#d79b00;fontSize=10;fontColor=#000000" vertex="1" parent="1">
          <mxGeometry x="400" y="1070" width="180" height="50" as="geometry" />
        </mxCell>
        
        <mxCell id="agents8" value="✅ 設定検証&#xa;validateConfig()" style="rounded=1;whiteSpace=wrap;html=1;fillColor=#d5e8d4;strokeColor=#82b366;fontSize=10;fontColor=#000000" vertex="1" parent="1">
          <mxGeometry x="400" y="1160" width="180" height="50" as="geometry" />
        </mxCell>
        
        <mxCell id="agents9" value="🔄 環境変数マージ&#xa;mergeWithEnv()" style="rounded=1;whiteSpace=wrap;html=1;fillColor=#d5e8d4;strokeColor=#82b366;fontSize=10;fontColor=#000000" vertex="1" parent="1">
          <mxGeometry x="400" y="1250" width="180" height="50" as="geometry" />
        </mxCell>
        
        <mxCell id="agents10" value="🗄️ キャッシュ保存" style="rounded=1;whiteSpace=wrap;html=1;fillColor=#e1d5e7;strokeColor=#9673a6;fontSize=10;fontColor=#000000" vertex="1" parent="1">
          <mxGeometry x="400" y="1340" width="180" height="50" as="geometry" />
        </mxCell>
        
        <mxCell id="agents11" value="📋 エージェント配列処理&#xa;パス解決・デフォルト値設定" style="rounded=1;whiteSpace=wrap;html=1;fillColor=#d5e8d4;strokeColor=#82b366;fontSize=10;fontColor=#000000" vertex="1" parent="1">
          <mxGeometry x="400" y="1430" width="180" height="50" as="geometry" />
        </mxCell>
        
        <!-- getSecurity Process -->
        <mxCell id="security1" value="🔒 getSecuritySettings()&#xa;セキュリティ設定取得" style="rounded=1;whiteSpace=wrap;html=1;fillColor=#d5e8d4;strokeColor=#82b366;fontSize=12;fontStyle=1;fontColor=#000000" vertex="1" parent="1">
          <mxGeometry x="650" y="600" width="200" height="60" as="geometry" />
        </mxCell>
        
        <mxCell id="security2" value="📚 loadConfig()呼出&#xa;→同じ処理フロー" style="rounded=1;whiteSpace=wrap;html=1;fillColor=#ffe6cc;strokeColor=#d79b00;fontSize=11;fontColor=#000000" vertex="1" parent="1">
          <mxGeometry x="650" y="700" width="200" height="50" as="geometry" />
        </mxCell>
        
        <mxCell id="security3" value="🛡️ セキュリティ設定処理&#xa;• allowedPaths解決&#xa;• blockedPatternsコンパイル" style="rounded=1;whiteSpace=wrap;html=1;fillColor=#d5e8d4;strokeColor=#82b366;fontSize=10;fontColor=#000000" vertex="1" parent="1">
          <mxGeometry x="650" y="790" width="200" height="60" as="geometry" />
        </mxCell>
        
        <!-- getPerformance Process -->
        <mxCell id="perf1" value="⚡ getPerformanceSettings()&#xa;パフォーマンス設定取得" style="rounded=1;whiteSpace=wrap;html=1;fillColor=#d5e8d4;strokeColor=#82b366;fontSize=12;fontStyle=1;fontColor=#000000" vertex="1" parent="1">
          <mxGeometry x="920" y="600" width="200" height="60" as="geometry" />
        </mxCell>
        
        <mxCell id="perf2" value="📚 loadConfig()呼出&#xa;→同じ処理フロー" style="rounded=1;whiteSpace=wrap;html=1;fillColor=#ffe6cc;strokeColor=#d79b00;fontSize=11;fontColor=#000000" vertex="1" parent="1">
          <mxGeometry x="920" y="700" width="200" height="50" as="geometry" />
        </mxCell>
        
        <mxCell id="perf3" value="⚙️ パフォーマンス設定処理&#xa;• maxConcurrency: 4&#xa;• cacheEnabled: true&#xa;• cacheTTL: 15分" style="rounded=1;whiteSpace=wrap;html=1;fillColor=#d5e8d4;strokeColor=#82b366;fontSize=10;fontColor=#000000" vertex="1" parent="1">
          <mxGeometry x="920" y="790" width="200" height="70" as="geometry" />
        </mxCell>
        
        <!-- Default Config -->
        <mxCell id="default1" value="📋 getDefaultConfig()&#xa;デフォルト設定返却" style="rounded=1;whiteSpace=wrap;html=1;fillColor=#d5e8d4;strokeColor=#82b366;fontSize=11;fontColor=#000000" vertex="1" parent="1">
          <mxGeometry x="150" y="890" width="180" height="50" as="geometry" />
        </mxCell>
        
        <mxCell id="default2" value="4つのエージェント定義&#xa;• security-error-xss-analyzer&#xa;• super-debugger-perfectionist&#xa;• deep-code-reviewer&#xa;• project-documentation-updater" style="rounded=1;whiteSpace=wrap;html=1;fillColor=#e1d5e7;strokeColor=#9673a6;fontSize=9;fontColor=#000000" vertex="1" parent="1">
          <mxGeometry x="150" y="980" width="180" height="80" as="geometry" />
        </mxCell>
        
        <!-- Static Config Class -->
        <mxCell id="static1" value="📊 Config クラス（静的）" style="rounded=1;whiteSpace=wrap;html=1;fillColor=#f8cecc;strokeColor=#b85450;fontSize=12;fontStyle=1;fontColor=#000000" vertex="1" parent="1">
          <mxGeometry x="920" y="160" width="200" height="60" as="geometry" />
        </mxCell>
        
        <mxCell id="static2" value="ALLOWED_COMMANDS&#xa;['git', 'mkdir', 'claude-code']" style="rounded=1;whiteSpace=wrap;html=1;fillColor=#fff2cc;strokeColor=#d6b656;fontSize=10;fontColor=#000000" vertex="1" parent="1">
          <mxGeometry x="920" y="260" width="200" height="50" as="geometry" />
        </mxCell>
        
        <mxCell id="static3" value="ALLOWED_OUTPUT_BASE&#xa;'./smart-review-results'" style="rounded=1;whiteSpace=wrap;html=1;fillColor=#fff2cc;strokeColor=#d6b656;fontSize=10;fontColor=#000000" vertex="1" parent="1">
          <mxGeometry x="920" y="330" width="200" height="50" as="geometry" />
        </mxCell>
        
        <mxCell id="static4" value="各種タイムアウト設定&#xa;COMMAND_TIMEOUT: 60秒&#xa;AGENT_TIMEOUT: 120秒&#xa;COMMENT_TIMEOUT: 180秒" style="rounded=1;whiteSpace=wrap;html=1;fillColor=#fff2cc;strokeColor=#d6b656;fontSize=10;fontColor=#000000" vertex="1" parent="1">
          <mxGeometry x="920" y="400" width="200" height="70" as="geometry" />
        </mxCell>
        
        <!-- Success End -->
        <mxCell id="success" value="✅ 設定取得成功&#xa;設定オブジェクト返却" style="ellipse;whiteSpace=wrap;html=1;fillColor=#d5e8d4;strokeColor=#82b366;fontSize=14;fontStyle=1;fontColor=#000000" vertex="1" parent="1">
          <mxGeometry x="650" y="1520" width="200" height="80" as="geometry" />
        </mxCell>
        
        <!-- Main Flow Arrows -->
        <mxCell id="arrow1" style="edgeStyle=orthogonalEdgeStyle;rounded=0;orthogonalLoop=1;jettySize=auto;html=1;entryX=0.5;entryY=0;entryDx=0;entryDy=0;" edge="1" parent="1" source="start" target="main1">
          <mxGeometry relative="1" as="geometry" />
        </mxCell>
        
        <mxCell id="arrow2" style="edgeStyle=orthogonalEdgeStyle;rounded=0;orthogonalLoop=1;jettySize=auto;html=1;entryX=0.5;entryY=0;entryDx=0;entryDy=0;" edge="1" parent="1" source="main1" target="main2">
          <mxGeometry relative="1" as="geometry" />
        </mxCell>
        
        <mxCell id="arrow3" style="edgeStyle=orthogonalEdgeStyle;rounded=0;orthogonalLoop=1;jettySize=auto;html=1;entryX=0.5;entryY=0;entryDx=0;entryDy=0;" edge="1" parent="1" source="main2" target="main3">
          <mxGeometry relative="1" as="geometry" />
        </mxCell>
        
        <mxCell id="arrow4" style="edgeStyle=orthogonalEdgeStyle;rounded=0;orthogonalLoop=1;jettySize=auto;html=1;entryX=0.5;entryY=0;entryDx=0;entryDy=0;" edge="1" parent="1" source="main3" target="branch1">
          <mxGeometry relative="1" as="geometry" />
        </mxCell>
        
        <!-- Branch Arrows -->
        <mxCell id="arrow5" style="edgeStyle=orthogonalEdgeStyle;rounded=0;orthogonalLoop=1;jettySize=auto;html=1;entryX=0.5;entryY=0;entryDx=0;entryDy=0;" edge="1" parent="1" source="branch1" target="agents1">
          <mxGeometry relative="1" as="geometry" />
        </mxCell>
        <mxCell id="arrow5label" value="getAgents" style="edgeLabel;html=1;align=center;verticalAlign=middle;resizable=0;points=[];fontSize=10;fontColor=#000000" vertex="1" connectable="0" parent="arrow5">
          <mxGeometry x="-0.1" y="-2" relative="1" as="geometry">
            <mxPoint as="offset" />
          </mxGeometry>
        </mxCell>
        
        <mxCell id="arrow6" style="edgeStyle=orthogonalEdgeStyle;rounded=0;orthogonalLoop=1;jettySize=auto;html=1;entryX=0.5;entryY=0;entryDx=0;entryDy=0;" edge="1" parent="1" source="branch1" target="security1">
          <mxGeometry relative="1" as="geometry" />
        </mxCell>
        <mxCell id="arrow6label" value="getSecurity" style="edgeLabel;html=1;align=center;verticalAlign=middle;resizable=0;points=[];fontSize=10;fontColor=#000000" vertex="1" connectable="0" parent="arrow6">
          <mxGeometry x="-0.1" y="-2" relative="1" as="geometry">
            <mxPoint as="offset" />
          </mxGeometry>
        </mxCell>
        
        <mxCell id="arrow7" style="edgeStyle=orthogonalEdgeStyle;rounded=0;orthogonalLoop=1;jettySize=auto;html=1;entryX=0.5;entryY=0;entryDx=0;entryDy=0;" edge="1" parent="1" source="branch1" target="perf1">
          <mxGeometry relative="1" as="geometry" />
        </mxCell>
        <mxCell id="arrow7label" value="getPerformance" style="edgeLabel;html=1;align=center;verticalAlign=middle;resizable=0;points=[];fontSize=10;fontColor=#000000" vertex="1" connectable="0" parent="arrow7">
          <mxGeometry x="-0.1" y="-2" relative="1" as="geometry">
            <mxPoint as="offset" />
          </mxGeometry>
        </mxCell>
        
        <!-- getAgents Flow -->
        <mxCell id="arrow8" style="edgeStyle=orthogonalEdgeStyle;rounded=0;orthogonalLoop=1;jettySize=auto;html=1;entryX=0.5;entryY=0;entryDx=0;entryDy=0;" edge="1" parent="1" source="agents1" target="agents2">
          <mxGeometry relative="1" as="geometry" />
        </mxCell>
        
        <mxCell id="arrow9" style="edgeStyle=orthogonalEdgeStyle;rounded=0;orthogonalLoop=1;jettySize=auto;html=1;entryX=0.5;entryY=0;entryDx=0;entryDy=0;" edge="1" parent="1" source="agents2" target="agents3">
          <mxGeometry relative="1" as="geometry" />
        </mxCell>
        
        <mxCell id="arrow10" style="edgeStyle=orthogonalEdgeStyle;rounded=0;orthogonalLoop=1;jettySize=auto;html=1;entryX=0.5;entryY=0;entryDx=0;entryDy=0;" edge="1" parent="1" source="agents3" target="agents4">
          <mxGeometry relative="1" as="geometry">
            <Array as="points">
              <mxPoint x="380" y="820" />
              <mxPoint x="310" y="820" />
            </Array>
          </mxGeometry>
        </mxCell>
        <mxCell id="arrow10label" value="あり" style="edgeLabel;html=1;align=center;verticalAlign=middle;resizable=0;points=[];fontSize=10;fontColor=#000000" vertex="1" connectable="0" parent="arrow10">
          <mxGeometry x="-0.1" y="-2" relative="1" as="geometry">
            <mxPoint as="offset" />
          </mxGeometry>
        </mxCell>
        
        <mxCell id="arrow11" style="edgeStyle=orthogonalEdgeStyle;rounded=0;orthogonalLoop=1;jettySize=auto;html=1;entryX=0.5;entryY=0;entryDx=0;entryDy=0;" edge="1" parent="1" source="agents3" target="agents5">
          <mxGeometry relative="1" as="geometry" />
        </mxCell>
        <mxCell id="arrow11label" value="なし" style="edgeLabel;html=1;align=center;verticalAlign=middle;resizable=0;points=[];fontSize=10;fontColor=#000000" vertex="1" connectable="0" parent="arrow11">
          <mxGeometry x="-0.1" y="-2" relative="1" as="geometry">
            <mxPoint as="offset" />
          </mxGeometry>
        </mxCell>
        
        <mxCell id="arrow12" style="edgeStyle=orthogonalEdgeStyle;rounded=0;orthogonalLoop=1;jettySize=auto;html=1;entryX=0.5;entryY=0;entryDx=0;entryDy=0;" edge="1" parent="1" source="agents5" target="agents6">
          <mxGeometry relative="1" as="geometry" />
        </mxCell>
        
        <mxCell id="arrow13" style="edgeStyle=orthogonalEdgeStyle;rounded=0;orthogonalLoop=1;jettySize=auto;html=1;entryX=0.5;entryY=0;entryDx=0;entryDy=0;" edge="1" parent="1" source="agents6" target="agents7">
          <mxGeometry relative="1" as="geometry" />
        </mxCell>
        
        <mxCell id="arrow14" style="edgeStyle=orthogonalEdgeStyle;rounded=0;orthogonalLoop=1;jettySize=auto;html=1;entryX=0.5;entryY=0;entryDx=0;entryDy=0;" edge="1" parent="1" source="agents7" target="agents8">
          <mxGeometry relative="1" as="geometry" />
        </mxCell>
        
        <mxCell id="arrow15" style="edgeStyle=orthogonalEdgeStyle;rounded=0;orthogonalLoop=1;jettySize=auto;html=1;entryX=0.5;entryY=0;entryDx=0;entryDy=0;" edge="1" parent="1" source="agents8" target="agents9">
          <mxGeometry relative="1" as="geometry" />
        </mxCell>
        
        <mxCell id="arrow16" style="edgeStyle=orthogonalEdgeStyle;rounded=0;orthogonalLoop=1;jettySize=auto;html=1;entryX=0.5;entryY=0;entryDx=0;entryDy=0;" edge="1" parent="1" source="agents9" target="agents10">
          <mxGeometry relative="1" as="geometry" />
        </mxCell>
        
        <mxCell id="arrow17" style="edgeStyle=orthogonalEdgeStyle;rounded=0;orthogonalLoop=1;jettySize=auto;html=1;entryX=0.5;entryY=0;entryDx=0;entryDy=0;" edge="1" parent="1" source="agents10" target="agents11">
          <mxGeometry relative="1" as="geometry" />
        </mxCell>
        
        <mxCell id="arrow18" style="edgeStyle=orthogonalEdgeStyle;rounded=0;orthogonalLoop=1;jettySize=auto;html=1;entryX=0;entryY=0.5;entryDx=0;entryDy=0;" edge="1" parent="1" source="agents11" target="success">
          <mxGeometry relative="1" as="geometry">
            <Array as="points">
              <mxPoint x="490" y="1500" />
              <mxPoint x="620" y="1500" />
              <mxPoint x="620" y="1560" />
            </Array>
          </mxGeometry>
        </mxCell>
        
        <!-- Default Config Flow -->
        <mxCell id="arrow19" style="edgeStyle=orthogonalEdgeStyle;rounded=0;orthogonalLoop=1;jettySize=auto;html=1;entryX=0.5;entryY=0;entryDx=0;entryDy=0;" edge="1" parent="1" source="agents5" target="default1">
          <mxGeometry relative="1" as="geometry">
            <Array as="points">
              <mxPoint x="350" y="915" />
              <mxPoint x="240" y="915" />
            </Array>
          </mxGeometry>
        </mxCell>
        <mxCell id="arrow19label" value="全て失敗" style="edgeLabel;html=1;align=center;verticalAlign=middle;resizable=0;points=[];fontSize=10;fontColor=#000000" vertex="1" connectable="0" parent="arrow19">
          <mxGeometry x="-0.1" y="-2" relative="1" as="geometry">
            <mxPoint as="offset" />
          </mxGeometry>
        </mxCell>
        
        <mxCell id="arrow20" style="edgeStyle=orthogonalEdgeStyle;rounded=0;orthogonalLoop=1;jettySize=auto;html=1;entryX=0.5;entryY=0;entryDx=0;entryDy=0;" edge="1" parent="1" source="default1" target="default2">
          <mxGeometry relative="1" as="geometry" />
        </mxCell>
        
        <!-- Other Method Flows -->
        <mxCell id="arrow21" style="edgeStyle=orthogonalEdgeStyle;rounded=0;orthogonalLoop=1;jettySize=auto;html=1;entryX=0.5;entryY=0;entryDx=0;entryDy=0;" edge="1" parent="1" source="security1" target="security2">
          <mxGeometry relative="1" as="geometry" />
        </mxCell>
        
        <mxCell id="arrow22" style="edgeStyle=orthogonalEdgeStyle;rounded=0;orthogonalLoop=1;jettySize=auto;html=1;entryX=0.5;entryY=0;entryDx=0;entryDy=0;" edge="1" parent="1" source="security2" target="security3">
          <mxGeometry relative="1" as="geometry" />
        </mxCell>
        
        <mxCell id="arrow23" style="edgeStyle=orthogonalEdgeStyle;rounded=0;orthogonalLoop=1;jettySize=auto;html=1;entryX=0.5;entryY=0;entryDx=0;entryDy=0;" edge="1" parent="1" source="perf1" target="perf2">
          <mxGeometry relative="1" as="geometry" />
        </mxCell>
        
        <mxCell id="arrow24" style="edgeStyle=orthogonalEdgeStyle;rounded=0;orthogonalLoop=1;jettySize=auto;html=1;entryX=0.5;entryY=0;entryDx=0;entryDy=0;" edge="1" parent="1" source="perf2" target="perf3">
          <mxGeometry relative="1" as="geometry" />
        </mxCell>
        
        <mxCell id="arrow25" style="edgeStyle=orthogonalEdgeStyle;rounded=0;orthogonalLoop=1;jettySize=auto;html=1;entryX=1;entryY=0.5;entryDx=0;entryDy=0;" edge="1" parent="1" source="security3" target="success">
          <mxGeometry relative="1" as="geometry">
            <Array as="points">
              <mxPoint x="750" y="890" />
              <mxPoint x="880" y="890" />
              <mxPoint x="880" y="1560" />
            </Array>
          </mxGeometry>
        </mxCell>
        
        <mxCell id="arrow26" style="edgeStyle=orthogonalEdgeStyle;rounded=0;orthogonalLoop=1;jettySize=auto;html=1;entryX=1;entryY=0.5;entryDx=0;entryDy=0;" edge="1" parent="1" source="perf3" target="success">
          <mxGeometry relative="1" as="geometry">
            <Array as="points">
              <mxPoint x="1020" y="900" />
              <mxPoint x="1150" y="900" />
              <mxPoint x="1150" y="1560" />
            </Array>
          </mxGeometry>
        </mxCell>
        
        <!-- Static Config Arrows -->
        <mxCell id="arrow27" style="edgeStyle=orthogonalEdgeStyle;rounded=0;orthogonalLoop=1;jettySize=auto;html=1;entryX=0;entryY=0.5;entryDx=0;entryDy=0;dashed=1;" edge="1" parent="1" source="main1" target="static1">
          <mxGeometry relative="1" as="geometry" />
        </mxCell>
        
        <!-- Legend -->
        <mxCell id="legend" value="🔍 凡例&#xa;━━ メインフロー&#xa;┅┅ 関連情報&#xa;&#xa;📚 設定読込処理&#xa;🤖 エージェント処理&#xa;🔒 セキュリティ処理&#xa;⚡ パフォーマンス処理&#xa;📊 静的定数" style="rounded=1;whiteSpace=wrap;html=1;fillColor=#f5f5f5;strokeColor=#666666;fontSize=10;align=left;fontColor=#000000" vertex="1" parent="1">
          <mxGeometry x="50" y="40" width="140" height="140" as="geometry" />
        </mxCell>
        
      </root>
    </mxGraphModel>
  </diagram>
</mxfile>